<?xml version="1.0" encoding="UTF-8" standalone="no"?>
<!DOCTYPE svg PUBLIC "-//W3C//DTD SVG 1.1//EN"
 "http://www.w3.org/Graphics/SVG/1.1/DTD/svg11.dtd">
<!-- Generated by graphviz version 9.0.0 (20230911.1827)
 -->
<!-- Pages: 1 -->
<svg width="214pt" height="332pt"
 viewBox="0.00 0.00 213.62 332.00" xmlns="http://www.w3.org/2000/svg" xmlns:xlink="http://www.w3.org/1999/xlink">
<g id="graph0" class="graph" transform="scale(1 1) rotate(0) translate(4 328)">
<polygon fill="white" stroke="none" points="-4,4 -4,-328 209.62,-328 209.62,4 -4,4"/>
<!-- 0 -->
<g id="node1" class="node">
<title>0</title>
<polygon fill="none" stroke="black" points="205.62,-108 151.62,-108 151.62,-72 205.62,-72 205.62,-108"/>
<text text-anchor="middle" x="178.62" y="-84.95" font-family="Times,serif" font-size="14.00">logger</text>
</g>
<!-- 1 -->
<g id="node2" class="node">
<title>1</title>
<polygon fill="none" stroke="black" points="116.38,-180 56.88,-180 56.88,-144 116.38,-144 116.38,-180"/>
<text text-anchor="middle" x="86.62" y="-156.95" font-family="Times,serif" font-size="14.00">resolver</text>
</g>
<!-- 1&#45;&gt;0 -->
<g id="edge1" class="edge">
<title>1&#45;&gt;0</title>
<path fill="none" stroke="black" d="M109.37,-143.7C120.65,-135.11 134.46,-124.61 146.77,-115.24"/>
<polygon fill="black" stroke="black" points="148.78,-118.1 154.62,-109.26 144.54,-112.53 148.78,-118.1"/>
</g>
<!-- 2 -->
<g id="node3" class="node">
<title>2</title>
<polygon fill="none" stroke="black" points="57.25,-108 0,-108 0,-72 57.25,-72 57.25,-108"/>
<text text-anchor="middle" x="28.62" y="-84.95" font-family="Times,serif" font-size="14.00">schema</text>
</g>
<!-- 1&#45;&gt;2 -->
<g id="edge2" class="edge">
<title>1&#45;&gt;2</title>
<path fill="none" stroke="black" d="M72.29,-143.7C65.55,-135.56 57.37,-125.69 49.92,-116.7"/>
<polygon fill="black" stroke="black" points="52.84,-114.74 43.76,-109.27 47.45,-119.2 52.84,-114.74"/>
</g>
<!-- 3 -->
<g id="node4" class="node">
<title>3</title>
<polygon fill="none" stroke="black" points="151,-36 86.25,-36 86.25,0 151,0 151,-36"/>
<text text-anchor="middle" x="118.62" y="-12.95" font-family="Times,serif" font-size="14.00">semconv</text>
</g>
<!-- 1&#45;&gt;3 -->
<g id="edge3" class="edge">
<title>1&#45;&gt;3</title>
<path fill="none" stroke="black" d="M90.97,-143.85C93.56,-133.48 96.87,-120 99.62,-108 104.24,-87.86 109.1,-65.06 112.75,-47.58"/>
<polygon fill="black" stroke="black" points="116.15,-48.41 114.76,-37.91 109.3,-46.99 116.15,-48.41"/>
</g>
<!-- 4 -->
<g id="node5" class="node">
<title>4</title>
<polygon fill="none" stroke="black" points="64.5,-36 8.75,-36 8.75,0 64.5,0 64.5,-36"/>
<text text-anchor="middle" x="36.62" y="-12.95" font-family="Times,serif" font-size="14.00">version</text>
</g>
<!-- 1&#45;&gt;4 -->
<g id="edge4" class="edge">
<title>1&#45;&gt;4</title>
<path fill="none" stroke="black" d="M84.3,-143.83C81.48,-125.58 75.91,-96.09 66.62,-72 63.2,-63.12 58.48,-53.94 53.79,-45.75"/>
<polygon fill="black" stroke="black" points="56.89,-44.11 48.75,-37.33 50.88,-47.71 56.89,-44.11"/>
</g>
<!-- 2&#45;&gt;3 -->
<g id="edge5" class="edge">
<title>2&#45;&gt;3</title>
<path fill="none" stroke="black" d="M50.87,-71.7C61.91,-63.11 75.42,-52.61 87.46,-43.24"/>
<polygon fill="black" stroke="black" points="89.38,-46.18 95.13,-37.28 85.08,-40.65 89.38,-46.18"/>
</g>
<!-- 2&#45;&gt;4 -->
<g id="edge6" class="edge">
<title>2&#45;&gt;4</title>
<path fill="none" stroke="black" d="M30.6,-71.7C31.44,-64.41 32.43,-55.73 33.36,-47.54"/>
<polygon fill="black" stroke="black" points="36.84,-47.94 34.5,-37.61 29.89,-47.15 36.84,-47.94"/>
</g>
<!-- 5 -->
<g id="node6" class="node">
<title>5</title>
<polygon fill="none" stroke="black" points="116.25,-252 53,-252 53,-216 116.25,-216 116.25,-252"/>
<text text-anchor="middle" x="84.62" y="-228.95" font-family="Times,serif" font-size="14.00">template</text>
</g>
<!-- 5&#45;&gt;0 -->
<g id="edge7" class="edge">
<title>5&#45;&gt;0</title>
<path fill="none" stroke="black" d="M98.84,-215.73C106.99,-205.56 117.24,-192.31 125.62,-180 139.33,-159.87 153.37,-136.13 163.55,-118.24"/>
<polygon fill="black" stroke="black" points="166.46,-120.19 168.32,-109.76 160.36,-116.76 166.46,-120.19"/>
</g>
<!-- 5&#45;&gt;1 -->
<g id="edge8" class="edge">
<title>5&#45;&gt;1</title>
<path fill="none" stroke="black" d="M85.12,-215.7C85.33,-208.41 85.58,-199.73 85.81,-191.54"/>
<polygon fill="black" stroke="black" points="89.31,-191.71 86.09,-181.62 82.31,-191.51 89.31,-191.71"/>
</g>
<!-- 5&#45;&gt;2 -->
<g id="edge9" class="edge">
<title>5&#45;&gt;2</title>
<path fill="none" stroke="black" d="M70.05,-215.91C62.31,-206.01 53.26,-192.97 47.62,-180 39.25,-160.72 34.44,-137.43 31.76,-119.52"/>
<polygon fill="black" stroke="black" points="35.27,-119.3 30.46,-109.85 28.33,-120.23 35.27,-119.3"/>
</g>
<!-- 6 -->
<g id="node7" class="node">
<title>6</title>
<polygon fill="none" stroke="black" points="172.12,-324 117.12,-324 117.12,-288 172.12,-288 172.12,-324"/>
<text text-anchor="middle" x="144.62" y="-300.95" font-family="Times,serif" font-size="14.00">weaver</text>
</g>
<!-- 6&#45;&gt;0 -->
<g id="edge10" class="edge">
<title>6&#45;&gt;0</title>
<path fill="none" stroke="black" d="M147.35,-287.85C153.18,-251.14 166.92,-164.66 174.09,-119.53"/>
<polygon fill="black" stroke="black" points="177.54,-120.15 175.65,-109.73 170.62,-119.05 177.54,-120.15"/>
</g>
<!-- 6&#45;&gt;1 -->
<g id="edge11" class="edge">
<title>6&#45;&gt;1</title>
<path fill="none" stroke="black" d="M143.1,-287.6C141,-269.15 136.18,-239.49 125.62,-216 121.45,-206.71 115.46,-197.47 109.42,-189.36"/>
<polygon fill="black" stroke="black" points="112.27,-187.33 103.34,-181.63 106.76,-191.65 112.27,-187.33"/>
</g>
<!-- 6&#45;&gt;5 -->
<g id="edge12" class="edge">
<title>6&#45;&gt;5</title>
<path fill="none" stroke="black" d="M129.79,-287.7C122.82,-279.56 114.36,-269.69 106.65,-260.7"/>
<polygon fill="black" stroke="black" points="109.44,-258.57 100.27,-253.25 104.12,-263.12 109.44,-258.57"/>
</g>
</g>
</svg>
