<?xml version="1.0" encoding="UTF-8" standalone="no"?>
<!DOCTYPE svg PUBLIC "-//W3C//DTD SVG 1.1//EN"
 "http://www.w3.org/Graphics/SVG/1.1/DTD/svg11.dtd">
<!-- Generated by graphviz version 9.0.0 (20230911.1827)
 -->
<!-- Pages: 1 -->
<svg width="406pt" height="332pt"
 viewBox="0.00 0.00 405.58 332.00" xmlns="http://www.w3.org/2000/svg" xmlns:xlink="http://www.w3.org/1999/xlink">
<g id="graph0" class="graph" transform="scale(1 1) rotate(0) translate(4 328)">
<polygon fill="white" stroke="none" points="-4,4 -4,-328 401.58,-328 401.58,4 -4,4"/>
<!-- 0 -->
<g id="node1" class="node">
<title>0</title>
<polygon fill="none" stroke="black" points="92.5,-252 0,-252 0,-216 92.5,-216 92.5,-252"/>
<text text-anchor="middle" x="46.25" y="-228.95" font-family="Times,serif" font-size="14.00">weaver_cache</text>
</g>
<!-- 1 -->
<g id="node2" class="node">
<title>1</title>
<polygon fill="none" stroke="black" points="174.38,-108 78.12,-108 78.12,-72 174.38,-72 174.38,-108"/>
<text text-anchor="middle" x="126.25" y="-84.95" font-family="Times,serif" font-size="14.00">weaver_logger</text>
</g>
<!-- 2 -->
<g id="node3" class="node">
<title>2</title>
<polygon fill="none" stroke="black" points="291.88,-180 186.62,-180 186.62,-144 291.88,-144 291.88,-180"/>
<text text-anchor="middle" x="239.25" y="-156.95" font-family="Times,serif" font-size="14.00">weaver_resolver</text>
</g>
<!-- 2&#45;&gt;1 -->
<g id="edge1" class="edge">
<title>2&#45;&gt;1</title>
<path fill="none" stroke="black" d="M211.03,-143.52C196.76,-134.68 179.26,-123.84 163.87,-114.3"/>
<polygon fill="black" stroke="black" points="165.74,-111.35 155.4,-109.06 162.06,-117.3 165.74,-111.35"/>
</g>
<!-- 3 -->
<g id="node4" class="node">
<title>3</title>
<polygon fill="none" stroke="black" points="371.75,-108 268.75,-108 268.75,-72 371.75,-72 371.75,-108"/>
<text text-anchor="middle" x="320.25" y="-84.95" font-family="Times,serif" font-size="14.00">weaver_schema</text>
</g>
<!-- 2&#45;&gt;3 -->
<g id="edge2" class="edge">
<title>2&#45;&gt;3</title>
<path fill="none" stroke="black" d="M259.27,-143.7C269.01,-135.28 280.89,-125.02 291.56,-115.79"/>
<polygon fill="black" stroke="black" points="293.75,-118.52 299.03,-109.34 289.18,-113.23 293.75,-118.52"/>
</g>
<!-- 4 -->
<g id="node5" class="node">
<title>4</title>
<polygon fill="none" stroke="black" points="381.5,-36 271,-36 271,0 381.5,0 381.5,-36"/>
<text text-anchor="middle" x="326.25" y="-12.95" font-family="Times,serif" font-size="14.00">weaver_semconv</text>
</g>
<!-- 2&#45;&gt;4 -->
<g id="edge3" class="edge">
<title>2&#45;&gt;4</title>
<path fill="none" stroke="black" d="M239.76,-143.64C241.05,-124.7 245.34,-94.12 259.25,-72 266.27,-60.83 276.5,-51.03 286.86,-42.99"/>
<polygon fill="black" stroke="black" points="288.68,-45.99 294.7,-37.27 284.56,-40.33 288.68,-45.99"/>
</g>
<!-- 5 -->
<g id="node6" class="node">
<title>5</title>
<polygon fill="none" stroke="black" points="253,-36 151.5,-36 151.5,0 253,0 253,-36"/>
<text text-anchor="middle" x="202.25" y="-12.95" font-family="Times,serif" font-size="14.00">weaver_version</text>
</g>
<!-- 2&#45;&gt;5 -->
<g id="edge4" class="edge">
<title>2&#45;&gt;5</title>
<path fill="none" stroke="black" d="M234.71,-143.59C228.44,-119.5 217.04,-75.75 209.55,-47.03"/>
<polygon fill="black" stroke="black" points="213,-46.37 207.09,-37.58 206.22,-48.13 213,-46.37"/>
</g>
<!-- 3&#45;&gt;4 -->
<g id="edge5" class="edge">
<title>3&#45;&gt;4</title>
<path fill="none" stroke="black" d="M321.73,-71.7C322.36,-64.41 323.1,-55.73 323.8,-47.54"/>
<polygon fill="black" stroke="black" points="327.29,-47.87 324.65,-37.61 320.31,-47.28 327.29,-47.87"/>
</g>
<!-- 3&#45;&gt;5 -->
<g id="edge6" class="edge">
<title>3&#45;&gt;5</title>
<path fill="none" stroke="black" d="M290.78,-71.52C275.74,-62.6 257.26,-51.63 241.07,-42.03"/>
<polygon fill="black" stroke="black" points="243.03,-39.12 232.65,-37.03 239.46,-45.15 243.03,-39.12"/>
</g>
<!-- 6 -->
<g id="node7" class="node">
<title>6</title>
<polygon fill="none" stroke="black" points="312.75,-252 203.75,-252 203.75,-216 312.75,-216 312.75,-252"/>
<text text-anchor="middle" x="258.25" y="-228.95" font-family="Times,serif" font-size="14.00">weaver_template</text>
</g>
<!-- 6&#45;&gt;1 -->
<g id="edge7" class="edge">
<title>6&#45;&gt;1</title>
<path fill="none" stroke="black" d="M224.07,-215.51C208.51,-206.4 190.62,-194.19 177.25,-180 160.3,-162.02 146.74,-137.38 137.88,-118.59"/>
<polygon fill="black" stroke="black" points="141.15,-117.33 133.83,-109.67 134.77,-120.22 141.15,-117.33"/>
</g>
<!-- 6&#45;&gt;2 -->
<g id="edge8" class="edge">
<title>6&#45;&gt;2</title>
<path fill="none" stroke="black" d="M253.55,-215.7C251.53,-208.24 249.11,-199.32 246.84,-190.97"/>
<polygon fill="black" stroke="black" points="250.29,-190.3 244.29,-181.57 243.53,-192.13 250.29,-190.3"/>
</g>
<!-- 6&#45;&gt;3 -->
<g id="edge9" class="edge">
<title>6&#45;&gt;3</title>
<path fill="none" stroke="black" d="M275.7,-215.83C284.63,-206.1 294.91,-193.26 301.25,-180 310.37,-160.91 315.15,-137.45 317.63,-119.4"/>
<polygon fill="black" stroke="black" points="321.09,-120.01 318.8,-109.67 314.14,-119.18 321.09,-120.01"/>
</g>
<!-- 7 -->
<g id="node8" class="node">
<title>7</title>
<polygon fill="none" stroke="black" points="243.75,-324 188.75,-324 188.75,-288 243.75,-288 243.75,-324"/>
<text text-anchor="middle" x="216.25" y="-300.95" font-family="Times,serif" font-size="14.00">weaver</text>
</g>
<!-- 7&#45;&gt;0 -->
<g id="edge10" class="edge">
<title>7&#45;&gt;0</title>
<path fill="none" stroke="black" d="M188.56,-293.6C164.43,-283.66 128.76,-268.97 99.17,-256.79"/>
<polygon fill="black" stroke="black" points="100.55,-253.57 89.97,-253 97.89,-260.05 100.55,-253.57"/>
</g>
<!-- 7&#45;&gt;1 -->
<g id="edge11" class="edge">
<title>7&#45;&gt;1</title>
<path fill="none" stroke="black" d="M206.78,-287.85C201.08,-277.49 193.7,-264.01 187.25,-252 170.12,-220.13 162.31,-213.74 149.25,-180 141.63,-160.32 135.75,-137.22 131.84,-119.48"/>
<polygon fill="black" stroke="black" points="135.31,-118.98 129.81,-109.91 128.46,-120.42 135.31,-118.98"/>
</g>
<!-- 7&#45;&gt;2 -->
<g id="edge12" class="edge">
<title>7&#45;&gt;2</title>
<path fill="none" stroke="black" d="M205.93,-287.6C196.53,-269.41 185.36,-240.2 194.25,-216 197.88,-206.12 204.25,-196.82 211.09,-188.86"/>
<polygon fill="black" stroke="black" points="213.6,-191.29 217.84,-181.58 208.47,-186.53 213.6,-191.29"/>
</g>
<!-- 7&#45;&gt;3 -->
<g id="edge13" class="edge">
<title>7&#45;&gt;3</title>
<path fill="none" stroke="black" d="M243.93,-299.68C269.25,-293.19 305.27,-279.48 322.25,-252 347.36,-211.37 338.06,-153.26 329.1,-119.1"/>
<polygon fill="black" stroke="black" points="332.49,-118.22 326.41,-109.54 325.75,-120.11 332.49,-118.22"/>
</g>
<!-- 7&#45;&gt;4 -->
<g id="edge14" class="edge">
<title>7&#45;&gt;4</title>
<path fill="none" stroke="black" d="M244.24,-300.57C272.94,-294.56 316.86,-281.03 342.25,-252 396.14,-190.38 413.27,-147.33 381.25,-72 376.7,-61.29 368.8,-51.7 360.39,-43.71"/>
<polygon fill="black" stroke="black" points="362.88,-41.24 353.06,-37.28 358.27,-46.5 362.88,-41.24"/>
</g>
<!-- 7&#45;&gt;6 -->
<g id="edge15" class="edge">
<title>7&#45;&gt;6</title>
<path fill="none" stroke="black" d="M226.63,-287.7C231.31,-279.9 236.94,-270.51 242.15,-261.83"/>
<polygon fill="black" stroke="black" points="245.06,-263.78 247.21,-253.4 239.06,-260.18 245.06,-263.78"/>
</g>
</g>
</svg>
