<?xml version="1.0" encoding="UTF-8" standalone="no"?>
<!DOCTYPE svg PUBLIC "-//W3C//DTD SVG 1.1//EN"
 "http://www.w3.org/Graphics/SVG/1.1/DTD/svg11.dtd">
<!-- Generated by graphviz version 9.0.0 (20230911.1827)
 -->
<!-- Pages: 1 -->
<svg width="599pt" height="332pt"
 viewBox="0.00 0.00 599.13 332.00" xmlns="http://www.w3.org/2000/svg" xmlns:xlink="http://www.w3.org/1999/xlink">
<g id="graph0" class="graph" transform="scale(1 1) rotate(0) translate(4 328)">
<polygon fill="white" stroke="none" points="-4,4 -4,-328 595.13,-328 595.13,4 -4,4"/>
<!-- 0 -->
<g id="node1" class="node">
<title>0</title>
<polygon fill="none" stroke="black" points="387,-108 294.5,-108 294.5,-72 387,-72 387,-108"/>
<text text-anchor="middle" x="340.75" y="-84.95" font-family="Times,serif" font-size="14.00">weaver_cache</text>
</g>
<!-- 1 -->
<g id="node2" class="node">
<title>1</title>
<polygon fill="none" stroke="black" points="576.88,-108 480.62,-108 480.62,-72 576.88,-72 576.88,-108"/>
<text text-anchor="middle" x="528.75" y="-84.95" font-family="Times,serif" font-size="14.00">weaver_logger</text>
</g>
<!-- 2 -->
<g id="node3" class="node">
<title>2</title>
<polygon fill="none" stroke="black" points="155.5,-108 0,-108 0,-72 155.5,-72 155.5,-108"/>
<text text-anchor="middle" x="77.75" y="-84.95" font-family="Times,serif" font-size="14.00">weaver_resolved_schema</text>
</g>
<!-- 3 -->
<g id="node4" class="node">
<title>3</title>
<polygon fill="none" stroke="black" points="275.5,-36 174,-36 174,0 275.5,0 275.5,-36"/>
<text text-anchor="middle" x="224.75" y="-12.95" font-family="Times,serif" font-size="14.00">weaver_version</text>
</g>
<!-- 2&#45;&gt;3 -->
<g id="edge1" class="edge">
<title>2&#45;&gt;3</title>
<path fill="none" stroke="black" d="M114.47,-71.52C133.66,-62.38 157.35,-51.09 177.86,-41.33"/>
<polygon fill="black" stroke="black" points="179.36,-44.49 186.88,-37.03 176.35,-38.17 179.36,-44.49"/>
</g>
<!-- 4 -->
<g id="node5" class="node">
<title>4</title>
<polygon fill="none" stroke="black" points="473.38,-180 368.12,-180 368.12,-144 473.38,-144 473.38,-180"/>
<text text-anchor="middle" x="420.75" y="-156.95" font-family="Times,serif" font-size="14.00">weaver_resolver</text>
</g>
<!-- 4&#45;&gt;0 -->
<g id="edge2" class="edge">
<title>4&#45;&gt;0</title>
<path fill="none" stroke="black" d="M400.97,-143.7C391.36,-135.28 379.63,-125.02 369.08,-115.79"/>
<polygon fill="black" stroke="black" points="371.54,-113.29 361.71,-109.34 366.94,-118.56 371.54,-113.29"/>
</g>
<!-- 4&#45;&gt;1 -->
<g id="edge3" class="edge">
<title>4&#45;&gt;1</title>
<path fill="none" stroke="black" d="M447.72,-143.52C461.36,-134.68 478.09,-123.84 492.8,-114.3"/>
<polygon fill="black" stroke="black" points="494.36,-117.46 500.85,-109.08 490.55,-111.59 494.36,-117.46"/>
</g>
<!-- 4&#45;&gt;3 -->
<g id="edge6" class="edge">
<title>4&#45;&gt;3</title>
<path fill="none" stroke="black" d="M420.59,-143.53C419.45,-123.61 414.56,-91.32 395.75,-72 367.36,-42.84 323.27,-29.64 286.97,-23.71"/>
<polygon fill="black" stroke="black" points="287.88,-20.31 277.48,-22.31 286.86,-27.23 287.88,-20.31"/>
</g>
<!-- 5 -->
<g id="node6" class="node">
<title>5</title>
<polygon fill="none" stroke="black" points="276.25,-108 173.25,-108 173.25,-72 276.25,-72 276.25,-108"/>
<text text-anchor="middle" x="224.75" y="-84.95" font-family="Times,serif" font-size="14.00">weaver_schema</text>
</g>
<!-- 4&#45;&gt;5 -->
<g id="edge4" class="edge">
<title>4&#45;&gt;5</title>
<path fill="none" stroke="black" d="M371.8,-143.52C345.15,-134 311.99,-122.16 283.91,-112.13"/>
<polygon fill="black" stroke="black" points="285.44,-108.96 274.84,-108.89 283.08,-115.55 285.44,-108.96"/>
</g>
<!-- 6 -->
<g id="node7" class="node">
<title>6</title>
<polygon fill="none" stroke="black" points="508,-36 397.5,-36 397.5,0 508,0 508,-36"/>
<text text-anchor="middle" x="452.75" y="-12.95" font-family="Times,serif" font-size="14.00">weaver_semconv</text>
</g>
<!-- 4&#45;&gt;6 -->
<g id="edge5" class="edge">
<title>4&#45;&gt;6</title>
<path fill="none" stroke="black" d="M424.67,-143.59C430.1,-119.5 439.96,-75.75 446.43,-47.03"/>
<polygon fill="black" stroke="black" points="449.78,-48.11 448.56,-37.59 442.95,-46.57 449.78,-48.11"/>
</g>
<!-- 5&#45;&gt;3 -->
<g id="edge8" class="edge">
<title>5&#45;&gt;3</title>
<path fill="none" stroke="black" d="M224.75,-71.7C224.75,-64.41 224.75,-55.73 224.75,-47.54"/>
<polygon fill="black" stroke="black" points="228.25,-47.62 224.75,-37.62 221.25,-47.62 228.25,-47.62"/>
</g>
<!-- 5&#45;&gt;6 -->
<g id="edge7" class="edge">
<title>5&#45;&gt;6</title>
<path fill="none" stroke="black" d="M276.49,-73.12C309.11,-63.1 351.55,-50.07 386.61,-39.31"/>
<polygon fill="black" stroke="black" points="387.26,-42.77 395.79,-36.49 385.2,-36.08 387.26,-42.77"/>
</g>
<!-- 7 -->
<g id="node8" class="node">
<title>7</title>
<polygon fill="none" stroke="black" points="439.25,-252 330.25,-252 330.25,-216 439.25,-216 439.25,-252"/>
<text text-anchor="middle" x="384.75" y="-228.95" font-family="Times,serif" font-size="14.00">weaver_template</text>
</g>
<!-- 7&#45;&gt;0 -->
<g id="edge9" class="edge">
<title>7&#45;&gt;0</title>
<path fill="none" stroke="black" d="M374.92,-215.82C369.47,-205.67 362.97,-192.42 358.75,-180 352.07,-160.36 347.5,-137.38 344.64,-119.7"/>
<polygon fill="black" stroke="black" points="348.11,-119.26 343.15,-109.9 341.19,-120.32 348.11,-119.26"/>
</g>
<!-- 7&#45;&gt;1 -->
<g id="edge10" class="edge">
<title>7&#45;&gt;1</title>
<path fill="none" stroke="black" d="M429.97,-215.53C448.02,-206.89 467.98,-195.05 482.75,-180 499.68,-162.75 511.78,-138.01 519.31,-118.99"/>
<polygon fill="black" stroke="black" points="522.56,-120.29 522.78,-109.69 516,-117.83 522.56,-120.29"/>
</g>
<!-- 7&#45;&gt;4 -->
<g id="edge11" class="edge">
<title>7&#45;&gt;4</title>
<path fill="none" stroke="black" d="M393.65,-215.7C397.62,-207.98 402.38,-198.71 406.81,-190.11"/>
<polygon fill="black" stroke="black" points="409.8,-191.94 411.26,-181.45 403.58,-188.74 409.8,-191.94"/>
</g>
<!-- 7&#45;&gt;5 -->
<g id="edge12" class="edge">
<title>7&#45;&gt;5</title>
<path fill="none" stroke="black" d="M365.13,-215.59C336.91,-190.54 284.72,-144.22 252.54,-115.66"/>
<polygon fill="black" stroke="black" points="254.96,-113.14 245.16,-109.12 250.32,-118.37 254.96,-113.14"/>
</g>
<!-- 8 -->
<g id="node9" class="node">
<title>8</title>
<polygon fill="none" stroke="black" points="453.25,-324 398.25,-324 398.25,-288 453.25,-288 453.25,-324"/>
<text text-anchor="middle" x="425.75" y="-300.95" font-family="Times,serif" font-size="14.00">weaver</text>
</g>
<!-- 8&#45;&gt;0 -->
<g id="edge13" class="edge">
<title>8&#45;&gt;0</title>
<path fill="none" stroke="black" d="M397.84,-299.48C372.78,-292.88 337.45,-279.13 320.75,-252 295.44,-210.87 313,-152.62 327.36,-118.63"/>
<polygon fill="black" stroke="black" points="330.39,-120.44 331.24,-109.88 323.99,-117.6 330.39,-120.44"/>
</g>
<!-- 8&#45;&gt;1 -->
<g id="edge14" class="edge">
<title>8&#45;&gt;1</title>
<path fill="none" stroke="black" d="M438.7,-287.53C446.18,-277.29 455.68,-264.04 463.75,-252 484.75,-220.65 494.41,-214.9 508.75,-180 516.76,-160.51 521.85,-137.23 524.88,-119.37"/>
<polygon fill="black" stroke="black" points="528.3,-120.17 526.4,-109.74 521.39,-119.08 528.3,-120.17"/>
</g>
<!-- 8&#45;&gt;4 -->
<g id="edge15" class="edge">
<title>8&#45;&gt;4</title>
<path fill="none" stroke="black" d="M435.29,-287.93C440.39,-277.82 446.14,-264.57 448.75,-252 452,-236.33 452.6,-231.53 448.75,-216 446.56,-207.15 442.58,-198.15 438.31,-190.14"/>
<polygon fill="black" stroke="black" points="441.41,-188.51 433.39,-181.59 435.34,-192 441.41,-188.51"/>
</g>
<!-- 8&#45;&gt;5 -->
<g id="edge16" class="edge">
<title>8&#45;&gt;5</title>
<path fill="none" stroke="black" d="M397.92,-298.55C371.42,-291.17 331.83,-276.8 305.75,-252 266.64,-214.8 243.46,-154.63 232.5,-119.34"/>
<polygon fill="black" stroke="black" points="235.88,-118.43 229.68,-109.84 229.17,-120.43 235.88,-118.43"/>
</g>
<!-- 8&#45;&gt;6 -->
<g id="edge17" class="edge">
<title>8&#45;&gt;6</title>
<path fill="none" stroke="black" d="M450,-287.62C462.63,-277.93 477.87,-265.18 489.75,-252 541.25,-194.87 563.46,-181.62 585.75,-108 590.39,-92.69 594.73,-85.24 585.75,-72 570.62,-49.69 544.44,-36.77 519.29,-29.29"/>
<polygon fill="black" stroke="black" points="520.26,-25.92 509.69,-26.7 518.44,-32.68 520.26,-25.92"/>
</g>
<!-- 8&#45;&gt;7 -->
<g id="edge18" class="edge">
<title>8&#45;&gt;7</title>
<path fill="none" stroke="black" d="M415.62,-287.7C411.05,-279.9 405.55,-270.51 400.46,-261.83"/>
<polygon fill="black" stroke="black" points="403.61,-260.27 395.53,-253.41 397.57,-263.81 403.61,-260.27"/>
</g>
</g>
</svg>
