<?xml version="1.0" encoding="UTF-8" standalone="no"?>
<!DOCTYPE svg PUBLIC "-//W3C//DTD SVG 1.1//EN"
 "http://www.w3.org/Graphics/SVG/1.1/DTD/svg11.dtd">
<!-- Generated by graphviz version 9.0.0 (20230911.1827)
 -->
<!-- Pages: 1 -->
<svg width="304pt" height="332pt"
 viewBox="0.00 0.00 303.88 332.00" xmlns="http://www.w3.org/2000/svg" xmlns:xlink="http://www.w3.org/1999/xlink">
<g id="graph0" class="graph" transform="scale(1 1) rotate(0) translate(4 328)">
<polygon fill="white" stroke="none" points="-4,4 -4,-328 299.88,-328 299.88,4 -4,4"/>
<!-- 0 -->
<g id="node1" class="node">
<title>0</title>
<polygon fill="none" stroke="black" points="295.88,-108 199.62,-108 199.62,-72 295.88,-72 295.88,-108"/>
<text text-anchor="middle" x="247.75" y="-84.95" font-family="Times,serif" font-size="14.00">weaver_logger</text>
</g>
<!-- 1 -->
<g id="node2" class="node">
<title>1</title>
<polygon fill="none" stroke="black" points="187.38,-180 82.12,-180 82.12,-144 187.38,-144 187.38,-180"/>
<text text-anchor="middle" x="134.75" y="-156.95" font-family="Times,serif" font-size="14.00">weaver_resolver</text>
</g>
<!-- 1&#45;&gt;0 -->
<g id="edge1" class="edge">
<title>1&#45;&gt;0</title>
<path fill="none" stroke="black" d="M162.97,-143.52C177.24,-134.68 194.74,-123.84 210.13,-114.3"/>
<polygon fill="black" stroke="black" points="211.94,-117.3 218.6,-109.06 208.26,-111.35 211.94,-117.3"/>
</g>
<!-- 2 -->
<g id="node3" class="node">
<title>2</title>
<polygon fill="none" stroke="black" points="105.25,-108 2.25,-108 2.25,-72 105.25,-72 105.25,-108"/>
<text text-anchor="middle" x="53.75" y="-84.95" font-family="Times,serif" font-size="14.00">weaver_schema</text>
</g>
<!-- 1&#45;&gt;2 -->
<g id="edge2" class="edge">
<title>1&#45;&gt;2</title>
<path fill="none" stroke="black" d="M114.73,-143.7C104.99,-135.28 93.11,-125.02 82.44,-115.79"/>
<polygon fill="black" stroke="black" points="84.82,-113.23 74.97,-109.34 80.25,-118.52 84.82,-113.23"/>
</g>
<!-- 3 -->
<g id="node4" class="node">
<title>3</title>
<polygon fill="none" stroke="black" points="230,-36 119.5,-36 119.5,0 230,0 230,-36"/>
<text text-anchor="middle" x="174.75" y="-12.95" font-family="Times,serif" font-size="14.00">weaver_semconv</text>
</g>
<!-- 1&#45;&gt;3 -->
<g id="edge3" class="edge">
<title>1&#45;&gt;3</title>
<path fill="none" stroke="black" d="M139.65,-143.59C146.44,-119.5 158.76,-75.75 166.85,-47.03"/>
<polygon fill="black" stroke="black" points="170.18,-48.14 169.52,-37.57 163.44,-46.24 170.18,-48.14"/>
</g>
<!-- 4 -->
<g id="node5" class="node">
<title>4</title>
<polygon fill="none" stroke="black" points="101.5,-36 0,-36 0,0 101.5,0 101.5,-36"/>
<text text-anchor="middle" x="50.75" y="-12.95" font-family="Times,serif" font-size="14.00">weaver_version</text>
</g>
<!-- 1&#45;&gt;4 -->
<g id="edge4" class="edge">
<title>1&#45;&gt;4</title>
<path fill="none" stroke="black" d="M133.88,-143.71C132.23,-124.83 127.48,-94.31 113.75,-72 107.04,-61.1 97.31,-51.33 87.5,-43.25"/>
<polygon fill="black" stroke="black" points="89.79,-40.6 79.75,-37.24 85.51,-46.13 89.79,-40.6"/>
</g>
<!-- 2&#45;&gt;3 -->
<g id="edge5" class="edge">
<title>2&#45;&gt;3</title>
<path fill="none" stroke="black" d="M83.97,-71.52C99.54,-62.51 118.7,-51.42 135.41,-41.76"/>
<polygon fill="black" stroke="black" points="136.7,-45.06 143.6,-37.02 133.2,-39 136.7,-45.06"/>
</g>
<!-- 2&#45;&gt;4 -->
<g id="edge6" class="edge">
<title>2&#45;&gt;4</title>
<path fill="none" stroke="black" d="M53.01,-71.7C52.7,-64.41 52.32,-55.73 51.97,-47.54"/>
<polygon fill="black" stroke="black" points="55.47,-47.46 51.55,-37.62 48.48,-47.76 55.47,-47.46"/>
</g>
<!-- 5 -->
<g id="node6" class="node">
<title>5</title>
<polygon fill="none" stroke="black" points="187.25,-252 78.25,-252 78.25,-216 187.25,-216 187.25,-252"/>
<text text-anchor="middle" x="132.75" y="-228.95" font-family="Times,serif" font-size="14.00">weaver_template</text>
</g>
<!-- 5&#45;&gt;0 -->
<g id="edge7" class="edge">
<title>5&#45;&gt;0</title>
<path fill="none" stroke="black" d="M157.68,-215.71C170.35,-206.13 185.41,-193.46 196.75,-180 212.57,-161.21 226.15,-136.83 235.31,-118.34"/>
<polygon fill="black" stroke="black" points="238.34,-120.11 239.52,-109.59 232.03,-117.08 238.34,-120.11"/>
</g>
<!-- 5&#45;&gt;1 -->
<g id="edge8" class="edge">
<title>5&#45;&gt;1</title>
<path fill="none" stroke="black" d="M133.24,-215.7C133.45,-208.41 133.7,-199.73 133.93,-191.54"/>
<polygon fill="black" stroke="black" points="137.43,-191.71 134.22,-181.62 130.43,-191.51 137.43,-191.71"/>
</g>
<!-- 5&#45;&gt;2 -->
<g id="edge9" class="edge">
<title>5&#45;&gt;2</title>
<path fill="none" stroke="black" d="M106.15,-215.51C94.19,-206.32 80.95,-194.04 72.75,-180 62.01,-161.62 57.31,-137.94 55.27,-119.63"/>
<polygon fill="black" stroke="black" points="58.76,-119.37 54.39,-109.72 51.79,-119.99 58.76,-119.37"/>
</g>
<!-- 6 -->
<g id="node7" class="node">
<title>6</title>
<polygon fill="none" stroke="black" points="243.25,-324 188.25,-324 188.25,-288 243.25,-288 243.25,-324"/>
<text text-anchor="middle" x="215.75" y="-300.95" font-family="Times,serif" font-size="14.00">weaver</text>
</g>
<!-- 6&#45;&gt;0 -->
<g id="edge10" class="edge">
<title>6&#45;&gt;0</title>
<path fill="none" stroke="black" d="M218.31,-287.85C223.8,-251.14 236.74,-164.66 243.48,-119.53"/>
<polygon fill="black" stroke="black" points="246.93,-120.14 244.95,-109.73 240.01,-119.1 246.93,-120.14"/>
</g>
<!-- 6&#45;&gt;1 -->
<g id="edge11" class="edge">
<title>6&#45;&gt;1</title>
<path fill="none" stroke="black" d="M215.04,-287.76C213.58,-268.92 209.15,-238.44 195.75,-216 189.37,-205.32 180.1,-195.68 170.69,-187.64"/>
<polygon fill="black" stroke="black" points="172.9,-184.92 162.91,-181.39 168.52,-190.38 172.9,-184.92"/>
</g>
<!-- 6&#45;&gt;5 -->
<g id="edge12" class="edge">
<title>6&#45;&gt;5</title>
<path fill="none" stroke="black" d="M195.23,-287.7C185.16,-279.2 172.84,-268.81 161.82,-259.51"/>
<polygon fill="black" stroke="black" points="164.38,-257.09 154.48,-253.32 159.86,-262.45 164.38,-257.09"/>
</g>
</g>
</svg>
