<?xml version="1.0" encoding="UTF-8" standalone="no"?>
<!DOCTYPE svg PUBLIC "-//W3C//DTD SVG 1.1//EN"
 "http://www.w3.org/Graphics/SVG/1.1/DTD/svg11.dtd">
<!-- Generated by graphviz version 9.0.0 (20230911.1827)
 -->
<!-- Pages: 1 -->
<svg width="426pt" height="332pt"
 viewBox="0.00 0.00 425.88 332.00" xmlns="http://www.w3.org/2000/svg" xmlns:xlink="http://www.w3.org/1999/xlink">
<g id="graph0" class="graph" transform="scale(1 1) rotate(0) translate(4 328)">
<polygon fill="white" stroke="none" points="-4,4 -4,-328 421.88,-328 421.88,4 -4,4"/>
<!-- 0 -->
<g id="node1" class="node">
<title>0</title>
<polygon fill="none" stroke="black" points="213.75,-108 121.25,-108 121.25,-72 213.75,-72 213.75,-108"/>
<text text-anchor="middle" x="167.5" y="-84.95" font-family="Times,serif" font-size="14.00">weaver_cache</text>
</g>
<!-- 1 -->
<g id="node2" class="node">
<title>1</title>
<polygon fill="none" stroke="black" points="403.62,-108 307.38,-108 307.38,-72 403.62,-72 403.62,-108"/>
<text text-anchor="middle" x="355.5" y="-84.95" font-family="Times,serif" font-size="14.00">weaver_logger</text>
</g>
<!-- 2 -->
<g id="node3" class="node">
<title>2</title>
<polygon fill="none" stroke="black" points="300.12,-180 194.88,-180 194.88,-144 300.12,-144 300.12,-180"/>
<text text-anchor="middle" x="247.5" y="-156.95" font-family="Times,serif" font-size="14.00">weaver_resolver</text>
</g>
<!-- 2&#45;&gt;0 -->
<g id="edge1" class="edge">
<title>2&#45;&gt;0</title>
<path fill="none" stroke="black" d="M227.72,-143.7C218.11,-135.28 206.38,-125.02 195.83,-115.79"/>
<polygon fill="black" stroke="black" points="198.29,-113.29 188.46,-109.34 193.69,-118.56 198.29,-113.29"/>
</g>
<!-- 2&#45;&gt;1 -->
<g id="edge2" class="edge">
<title>2&#45;&gt;1</title>
<path fill="none" stroke="black" d="M274.47,-143.52C288.11,-134.68 304.84,-123.84 319.55,-114.3"/>
<polygon fill="black" stroke="black" points="321.11,-117.46 327.6,-109.08 317.3,-111.59 321.11,-117.46"/>
</g>
<!-- 3 -->
<g id="node4" class="node">
<title>3</title>
<polygon fill="none" stroke="black" points="103,-108 0,-108 0,-72 103,-72 103,-108"/>
<text text-anchor="middle" x="51.5" y="-84.95" font-family="Times,serif" font-size="14.00">weaver_schema</text>
</g>
<!-- 2&#45;&gt;3 -->
<g id="edge3" class="edge">
<title>2&#45;&gt;3</title>
<path fill="none" stroke="black" d="M198.55,-143.52C171.9,-134 138.74,-122.16 110.66,-112.13"/>
<polygon fill="black" stroke="black" points="112.19,-108.96 101.59,-108.89 109.83,-115.55 112.19,-108.96"/>
</g>
<!-- 4 -->
<g id="node5" class="node">
<title>4</title>
<polygon fill="none" stroke="black" points="334.75,-36 224.25,-36 224.25,0 334.75,0 334.75,-36"/>
<text text-anchor="middle" x="279.5" y="-12.95" font-family="Times,serif" font-size="14.00">weaver_semconv</text>
</g>
<!-- 2&#45;&gt;4 -->
<g id="edge4" class="edge">
<title>2&#45;&gt;4</title>
<path fill="none" stroke="black" d="M251.42,-143.59C256.85,-119.5 266.71,-75.75 273.18,-47.03"/>
<polygon fill="black" stroke="black" points="276.53,-48.11 275.31,-37.59 269.7,-46.57 276.53,-48.11"/>
</g>
<!-- 5 -->
<g id="node6" class="node">
<title>5</title>
<polygon fill="none" stroke="black" points="154.25,-36 52.75,-36 52.75,0 154.25,0 154.25,-36"/>
<text text-anchor="middle" x="103.5" y="-12.95" font-family="Times,serif" font-size="14.00">weaver_version</text>
</g>
<!-- 2&#45;&gt;5 -->
<g id="edge5" class="edge">
<title>2&#45;&gt;5</title>
<path fill="none" stroke="black" d="M246.89,-143.56C245.33,-123.97 240.03,-92.28 222.5,-72 207.64,-54.81 186.11,-42.95 165.44,-34.88"/>
<polygon fill="black" stroke="black" points="166.76,-31.64 156.17,-31.52 164.37,-38.22 166.76,-31.64"/>
</g>
<!-- 3&#45;&gt;4 -->
<g id="edge6" class="edge">
<title>3&#45;&gt;4</title>
<path fill="none" stroke="black" d="M103.24,-73.12C135.86,-63.1 178.3,-50.07 213.36,-39.31"/>
<polygon fill="black" stroke="black" points="214.01,-42.77 222.54,-36.49 211.95,-36.08 214.01,-42.77"/>
</g>
<!-- 3&#45;&gt;5 -->
<g id="edge7" class="edge">
<title>3&#45;&gt;5</title>
<path fill="none" stroke="black" d="M64.35,-71.7C70.27,-63.73 77.43,-54.1 83.99,-45.26"/>
<polygon fill="black" stroke="black" points="86.74,-47.43 89.89,-37.32 81.12,-43.26 86.74,-47.43"/>
</g>
<!-- 6 -->
<g id="node7" class="node">
<title>6</title>
<polygon fill="none" stroke="black" points="266,-252 157,-252 157,-216 266,-216 266,-252"/>
<text text-anchor="middle" x="211.5" y="-228.95" font-family="Times,serif" font-size="14.00">weaver_template</text>
</g>
<!-- 6&#45;&gt;0 -->
<g id="edge8" class="edge">
<title>6&#45;&gt;0</title>
<path fill="none" stroke="black" d="M201.67,-215.82C196.22,-205.67 189.72,-192.42 185.5,-180 178.82,-160.36 174.25,-137.38 171.39,-119.7"/>
<polygon fill="black" stroke="black" points="174.86,-119.26 169.9,-109.9 167.94,-120.32 174.86,-119.26"/>
</g>
<!-- 6&#45;&gt;1 -->
<g id="edge9" class="edge">
<title>6&#45;&gt;1</title>
<path fill="none" stroke="black" d="M256.72,-215.53C274.77,-206.89 294.73,-195.05 309.5,-180 326.43,-162.75 338.53,-138.01 346.06,-118.99"/>
<polygon fill="black" stroke="black" points="349.31,-120.29 349.53,-109.69 342.75,-117.83 349.31,-120.29"/>
</g>
<!-- 6&#45;&gt;2 -->
<g id="edge10" class="edge">
<title>6&#45;&gt;2</title>
<path fill="none" stroke="black" d="M220.4,-215.7C224.37,-207.98 229.13,-198.71 233.56,-190.11"/>
<polygon fill="black" stroke="black" points="236.55,-191.94 238.01,-181.45 230.33,-188.74 236.55,-191.94"/>
</g>
<!-- 6&#45;&gt;3 -->
<g id="edge11" class="edge">
<title>6&#45;&gt;3</title>
<path fill="none" stroke="black" d="M191.88,-215.59C163.66,-190.54 111.47,-144.22 79.29,-115.66"/>
<polygon fill="black" stroke="black" points="81.71,-113.14 71.91,-109.12 77.07,-118.37 81.71,-113.14"/>
</g>
<!-- 7 -->
<g id="node8" class="node">
<title>7</title>
<polygon fill="none" stroke="black" points="280,-324 225,-324 225,-288 280,-288 280,-324"/>
<text text-anchor="middle" x="252.5" y="-300.95" font-family="Times,serif" font-size="14.00">weaver</text>
</g>
<!-- 7&#45;&gt;0 -->
<g id="edge12" class="edge">
<title>7&#45;&gt;0</title>
<path fill="none" stroke="black" d="M224.59,-299.48C199.53,-292.88 164.2,-279.13 147.5,-252 122.19,-210.87 139.75,-152.62 154.11,-118.63"/>
<polygon fill="black" stroke="black" points="157.14,-120.44 157.99,-109.88 150.74,-117.6 157.14,-120.44"/>
</g>
<!-- 7&#45;&gt;1 -->
<g id="edge13" class="edge">
<title>7&#45;&gt;1</title>
<path fill="none" stroke="black" d="M265.45,-287.53C272.93,-277.29 282.43,-264.04 290.5,-252 311.5,-220.65 321.16,-214.9 335.5,-180 343.51,-160.51 348.6,-137.23 351.63,-119.37"/>
<polygon fill="black" stroke="black" points="355.05,-120.17 353.15,-109.74 348.14,-119.08 355.05,-120.17"/>
</g>
<!-- 7&#45;&gt;2 -->
<g id="edge14" class="edge">
<title>7&#45;&gt;2</title>
<path fill="none" stroke="black" d="M261.63,-287.88C266.51,-277.76 272.01,-264.51 274.5,-252 277.63,-236.31 278.23,-231.56 274.5,-216 272.39,-207.2 268.56,-198.22 264.44,-190.21"/>
<polygon fill="black" stroke="black" points="267.61,-188.71 259.7,-181.66 261.48,-192.1 267.61,-188.71"/>
</g>
<!-- 7&#45;&gt;3 -->
<g id="edge15" class="edge">
<title>7&#45;&gt;3</title>
<path fill="none" stroke="black" d="M224.67,-298.55C198.17,-291.17 158.58,-276.8 132.5,-252 93.39,-214.8 70.21,-154.63 59.25,-119.34"/>
<polygon fill="black" stroke="black" points="62.63,-118.43 56.43,-109.84 55.92,-120.43 62.63,-118.43"/>
</g>
<!-- 7&#45;&gt;4 -->
<g id="edge16" class="edge">
<title>7&#45;&gt;4</title>
<path fill="none" stroke="black" d="M276.75,-287.62C289.38,-277.93 304.62,-265.18 316.5,-252 368,-194.87 390.21,-181.62 412.5,-108 417.14,-92.69 421.48,-85.24 412.5,-72 397.37,-49.69 371.19,-36.77 346.04,-29.29"/>
<polygon fill="black" stroke="black" points="347.01,-25.92 336.44,-26.7 345.19,-32.68 347.01,-25.92"/>
</g>
<!-- 7&#45;&gt;6 -->
<g id="edge17" class="edge">
<title>7&#45;&gt;6</title>
<path fill="none" stroke="black" d="M242.37,-287.7C237.8,-279.9 232.3,-270.51 227.21,-261.83"/>
<polygon fill="black" stroke="black" points="230.36,-260.27 222.28,-253.41 224.32,-263.81 230.36,-260.27"/>
</g>
</g>
</svg>
