<?xml version="1.0" encoding="UTF-8" standalone="no"?>
<!DOCTYPE svg PUBLIC "-//W3C//DTD SVG 1.1//EN"
 "http://www.w3.org/Graphics/SVG/1.1/DTD/svg11.dtd">
<!-- Generated by graphviz version 9.0.0 (20230911.1827)
 -->
<!-- Pages: 1 -->
<svg width="315pt" height="332pt"
 viewBox="0.00 0.00 314.85 332.00" xmlns="http://www.w3.org/2000/svg" xmlns:xlink="http://www.w3.org/1999/xlink">
<g id="graph0" class="graph" transform="scale(1 1) rotate(0) translate(4 328)">
<polygon fill="white" stroke="none" points="-4,4 -4,-328 310.85,-328 310.85,4 -4,4"/>
<!-- 0 -->
<g id="node1" class="node">
<title>0</title>
<polygon fill="none" stroke="black" points="96.25,-108 0,-108 0,-72 96.25,-72 96.25,-108"/>
<text text-anchor="middle" x="48.12" y="-84.95" font-family="Times,serif" font-size="14.00">weaver_logger</text>
</g>
<!-- 1 -->
<g id="node2" class="node">
<title>1</title>
<polygon fill="none" stroke="black" points="213.75,-180 108.5,-180 108.5,-144 213.75,-144 213.75,-180"/>
<text text-anchor="middle" x="161.12" y="-156.95" font-family="Times,serif" font-size="14.00">weaver_resolver</text>
</g>
<!-- 1&#45;&gt;0 -->
<g id="edge1" class="edge">
<title>1&#45;&gt;0</title>
<path fill="none" stroke="black" d="M132.9,-143.52C118.64,-134.68 101.13,-123.84 85.74,-114.3"/>
<polygon fill="black" stroke="black" points="87.62,-111.35 77.28,-109.06 83.93,-117.3 87.62,-111.35"/>
</g>
<!-- 2 -->
<g id="node3" class="node">
<title>2</title>
<polygon fill="none" stroke="black" points="293.62,-108 190.62,-108 190.62,-72 293.62,-72 293.62,-108"/>
<text text-anchor="middle" x="242.12" y="-84.95" font-family="Times,serif" font-size="14.00">weaver_schema</text>
</g>
<!-- 1&#45;&gt;2 -->
<g id="edge2" class="edge">
<title>1&#45;&gt;2</title>
<path fill="none" stroke="black" d="M181.15,-143.7C190.88,-135.28 202.76,-125.02 213.44,-115.79"/>
<polygon fill="black" stroke="black" points="215.63,-118.52 220.91,-109.34 211.05,-113.23 215.63,-118.52"/>
</g>
<!-- 3 -->
<g id="node4" class="node">
<title>3</title>
<polygon fill="none" stroke="black" points="303.38,-36 192.88,-36 192.88,0 303.38,0 303.38,-36"/>
<text text-anchor="middle" x="248.12" y="-12.95" font-family="Times,serif" font-size="14.00">weaver_semconv</text>
</g>
<!-- 1&#45;&gt;3 -->
<g id="edge3" class="edge">
<title>1&#45;&gt;3</title>
<path fill="none" stroke="black" d="M161.64,-143.64C162.93,-124.7 167.22,-94.12 181.12,-72 188.15,-60.83 198.38,-51.03 208.74,-42.99"/>
<polygon fill="black" stroke="black" points="210.56,-45.99 216.58,-37.27 206.43,-40.33 210.56,-45.99"/>
</g>
<!-- 4 -->
<g id="node5" class="node">
<title>4</title>
<polygon fill="none" stroke="black" points="174.88,-36 73.38,-36 73.38,0 174.88,0 174.88,-36"/>
<text text-anchor="middle" x="124.12" y="-12.95" font-family="Times,serif" font-size="14.00">weaver_version</text>
</g>
<!-- 1&#45;&gt;4 -->
<g id="edge4" class="edge">
<title>1&#45;&gt;4</title>
<path fill="none" stroke="black" d="M156.59,-143.59C150.31,-119.5 138.91,-75.75 131.43,-47.03"/>
<polygon fill="black" stroke="black" points="134.87,-46.37 128.97,-37.58 128.1,-48.13 134.87,-46.37"/>
</g>
<!-- 2&#45;&gt;3 -->
<g id="edge5" class="edge">
<title>2&#45;&gt;3</title>
<path fill="none" stroke="black" d="M243.61,-71.7C244.23,-64.41 244.98,-55.73 245.68,-47.54"/>
<polygon fill="black" stroke="black" points="249.16,-47.87 246.53,-37.61 242.19,-47.28 249.16,-47.87"/>
</g>
<!-- 2&#45;&gt;4 -->
<g id="edge6" class="edge">
<title>2&#45;&gt;4</title>
<path fill="none" stroke="black" d="M212.65,-71.52C197.62,-62.6 179.13,-51.63 162.95,-42.03"/>
<polygon fill="black" stroke="black" points="164.91,-39.12 154.52,-37.03 161.34,-45.15 164.91,-39.12"/>
</g>
<!-- 5 -->
<g id="node6" class="node">
<title>5</title>
<polygon fill="none" stroke="black" points="213.62,-252 104.62,-252 104.62,-216 213.62,-216 213.62,-252"/>
<text text-anchor="middle" x="159.12" y="-228.95" font-family="Times,serif" font-size="14.00">weaver_template</text>
</g>
<!-- 5&#45;&gt;0 -->
<g id="edge7" class="edge">
<title>5&#45;&gt;0</title>
<path fill="none" stroke="black" d="M136.11,-215.68C124.2,-206 109.93,-193.25 99.12,-180 83.77,-161.16 70.3,-137.12 61.06,-118.77"/>
<polygon fill="black" stroke="black" points="64.21,-117.25 56.67,-109.81 57.92,-120.33 64.21,-117.25"/>
</g>
<!-- 5&#45;&gt;1 -->
<g id="edge8" class="edge">
<title>5&#45;&gt;1</title>
<path fill="none" stroke="black" d="M159.62,-215.7C159.83,-208.41 160.08,-199.73 160.31,-191.54"/>
<polygon fill="black" stroke="black" points="163.81,-191.71 160.59,-181.62 156.81,-191.51 163.81,-191.71"/>
</g>
<!-- 5&#45;&gt;2 -->
<g id="edge9" class="edge">
<title>5&#45;&gt;2</title>
<path fill="none" stroke="black" d="M187.83,-215.63C200.5,-206.54 214.45,-194.31 223.12,-180 234.15,-161.8 238.84,-138.11 240.8,-119.75"/>
<polygon fill="black" stroke="black" points="244.28,-120.05 241.62,-109.8 237.31,-119.47 244.28,-120.05"/>
</g>
<!-- 6 -->
<g id="node7" class="node">
<title>6</title>
<polygon fill="none" stroke="black" points="269.62,-324 214.62,-324 214.62,-288 269.62,-288 269.62,-324"/>
<text text-anchor="middle" x="242.12" y="-300.95" font-family="Times,serif" font-size="14.00">weaver</text>
</g>
<!-- 6&#45;&gt;0 -->
<g id="edge10" class="edge">
<title>6&#45;&gt;0</title>
<path fill="none" stroke="black" d="M214.34,-302.32C181.45,-297.68 127.13,-285.21 95.12,-252 60.18,-215.74 51,-154.99 48.72,-119.39"/>
<polygon fill="black" stroke="black" points="52.24,-119.68 48.26,-109.87 45.25,-120.02 52.24,-119.68"/>
</g>
<!-- 6&#45;&gt;1 -->
<g id="edge11" class="edge">
<title>6&#45;&gt;1</title>
<path fill="none" stroke="black" d="M241.42,-287.76C239.96,-268.92 235.52,-238.44 222.12,-216 215.75,-205.32 206.47,-195.68 197.07,-187.64"/>
<polygon fill="black" stroke="black" points="199.27,-184.92 189.28,-181.39 194.89,-190.38 199.27,-184.92"/>
</g>
<!-- 6&#45;&gt;2 -->
<g id="edge12" class="edge">
<title>6&#45;&gt;2</title>
<path fill="none" stroke="black" d="M242.7,-287.61C243.59,-258.08 245.11,-196.26 244.12,-144 243.98,-136.05 243.7,-127.44 243.4,-119.51"/>
<polygon fill="black" stroke="black" points="246.9,-119.54 243,-109.69 239.91,-119.83 246.9,-119.54"/>
</g>
<!-- 6&#45;&gt;3 -->
<g id="edge13" class="edge">
<title>6&#45;&gt;3</title>
<path fill="none" stroke="black" d="M249.4,-287.76C263.21,-254 292.76,-176.5 303.12,-108 305.52,-92.18 309.38,-86.72 303.12,-72 298.57,-61.29 290.68,-51.7 282.27,-43.71"/>
<polygon fill="black" stroke="black" points="284.76,-41.24 274.93,-37.28 280.14,-46.5 284.76,-41.24"/>
</g>
<!-- 6&#45;&gt;5 -->
<g id="edge14" class="edge">
<title>6&#45;&gt;5</title>
<path fill="none" stroke="black" d="M221.61,-287.7C211.53,-279.2 199.22,-268.81 188.19,-259.51"/>
<polygon fill="black" stroke="black" points="190.75,-257.09 180.85,-253.32 186.24,-262.45 190.75,-257.09"/>
</g>
</g>
</svg>
