<?xml version="1.0" encoding="UTF-8" standalone="no"?>
<!DOCTYPE svg PUBLIC "-//W3C//DTD SVG 1.1//EN"
 "http://www.w3.org/Graphics/SVG/1.1/DTD/svg11.dtd">
<!-- Generated by graphviz version 9.0.0 (20230911.1827)
 -->
<!-- Pages: 1 -->
<svg width="327pt" height="332pt"
 viewBox="0.00 0.00 327.18 332.00" xmlns="http://www.w3.org/2000/svg" xmlns:xlink="http://www.w3.org/1999/xlink">
<g id="graph0" class="graph" transform="scale(1 1) rotate(0) translate(4 328)">
<polygon fill="white" stroke="none" points="-4,4 -4,-328 323.18,-328 323.18,4 -4,4"/>
<!-- 0 -->
<g id="node1" class="node">
<title>0</title>
<polygon fill="none" stroke="black" points="96.25,-108 0,-108 0,-72 96.25,-72 96.25,-108"/>
<text text-anchor="middle" x="48.12" y="-84.95" font-family="Times,serif" font-size="14.00">weaver_logger</text>
</g>
<!-- 1 -->
<g id="node2" class="node">
<title>1</title>
<polygon fill="none" stroke="black" points="214.75,-180 109.5,-180 109.5,-144 214.75,-144 214.75,-180"/>
<text text-anchor="middle" x="162.12" y="-156.95" font-family="Times,serif" font-size="14.00">weaver_resolver</text>
</g>
<!-- 1&#45;&gt;0 -->
<g id="edge1" class="edge">
<title>1&#45;&gt;0</title>
<path fill="none" stroke="black" d="M133.65,-143.52C119.12,-134.6 101.27,-123.63 85.63,-114.03"/>
<polygon fill="black" stroke="black" points="87.88,-111.3 77.52,-109.05 84.22,-117.27 87.88,-111.3"/>
</g>
<!-- 2 -->
<g id="node3" class="node">
<title>2</title>
<polygon fill="none" stroke="black" points="293.62,-108 190.62,-108 190.62,-72 293.62,-72 293.62,-108"/>
<text text-anchor="middle" x="242.12" y="-84.95" font-family="Times,serif" font-size="14.00">weaver_schema</text>
</g>
<!-- 1&#45;&gt;2 -->
<g id="edge2" class="edge">
<title>1&#45;&gt;2</title>
<path fill="none" stroke="black" d="M181.9,-143.7C191.52,-135.28 203.25,-125.02 213.79,-115.79"/>
<polygon fill="black" stroke="black" points="215.94,-118.56 221.16,-109.34 211.33,-113.29 215.94,-118.56"/>
</g>
<!-- 3 -->
<g id="node4" class="node">
<title>3</title>
<polygon fill="none" stroke="black" points="303.38,-36 192.88,-36 192.88,0 303.38,0 303.38,-36"/>
<text text-anchor="middle" x="248.12" y="-12.95" font-family="Times,serif" font-size="14.00">weaver_semconv</text>
</g>
<!-- 1&#45;&gt;3 -->
<g id="edge3" class="edge">
<title>1&#45;&gt;3</title>
<path fill="none" stroke="black" d="M162.41,-143.65C163.45,-124.72 167.37,-94.14 181.12,-72 188.09,-60.79 198.3,-50.98 208.66,-42.94"/>
<polygon fill="black" stroke="black" points="210.48,-45.94 216.51,-37.23 206.36,-40.28 210.48,-45.94"/>
</g>
<!-- 4 -->
<g id="node5" class="node">
<title>4</title>
<polygon fill="none" stroke="black" points="174.88,-36 73.38,-36 73.38,0 174.88,0 174.88,-36"/>
<text text-anchor="middle" x="124.12" y="-12.95" font-family="Times,serif" font-size="14.00">weaver_version</text>
</g>
<!-- 1&#45;&gt;4 -->
<g id="edge4" class="edge">
<title>1&#45;&gt;4</title>
<path fill="none" stroke="black" d="M157.47,-143.59C151.02,-119.5 139.31,-75.75 131.63,-47.03"/>
<polygon fill="black" stroke="black" points="135.06,-46.33 129.1,-37.57 128.3,-48.14 135.06,-46.33"/>
</g>
<!-- 2&#45;&gt;3 -->
<g id="edge5" class="edge">
<title>2&#45;&gt;3</title>
<path fill="none" stroke="black" d="M243.61,-71.7C244.23,-64.41 244.98,-55.73 245.68,-47.54"/>
<polygon fill="black" stroke="black" points="249.16,-47.87 246.53,-37.61 242.19,-47.28 249.16,-47.87"/>
</g>
<!-- 2&#45;&gt;4 -->
<g id="edge6" class="edge">
<title>2&#45;&gt;4</title>
<path fill="none" stroke="black" d="M212.65,-71.52C197.62,-62.6 179.13,-51.63 162.95,-42.03"/>
<polygon fill="black" stroke="black" points="164.91,-39.12 154.52,-37.03 161.34,-45.15 164.91,-39.12"/>
</g>
<!-- 5 -->
<g id="node6" class="node">
<title>5</title>
<polygon fill="none" stroke="black" points="255.62,-252 146.62,-252 146.62,-216 255.62,-216 255.62,-252"/>
<text text-anchor="middle" x="201.12" y="-228.95" font-family="Times,serif" font-size="14.00">weaver_template</text>
</g>
<!-- 5&#45;&gt;0 -->
<g id="edge7" class="edge">
<title>5&#45;&gt;0</title>
<path fill="none" stroke="black" d="M155.16,-215.51C136.55,-206.84 115.8,-194.98 100.12,-180 82.06,-162.74 68.24,-137.84 59.4,-118.76"/>
<polygon fill="black" stroke="black" points="62.63,-117.42 55.39,-109.69 56.23,-120.25 62.63,-117.42"/>
</g>
<!-- 5&#45;&gt;1 -->
<g id="edge8" class="edge">
<title>5&#45;&gt;1</title>
<path fill="none" stroke="black" d="M191.48,-215.7C187.19,-207.98 182.02,-198.71 177.23,-190.11"/>
<polygon fill="black" stroke="black" points="180.32,-188.46 172.39,-181.43 174.2,-191.87 180.32,-188.46"/>
</g>
<!-- 5&#45;&gt;2 -->
<g id="edge9" class="edge">
<title>5&#45;&gt;2</title>
<path fill="none" stroke="black" d="M209.74,-215.69C214.53,-205.5 220.28,-192.25 224.12,-180 230.35,-160.2 234.93,-137.24 237.91,-119.59"/>
<polygon fill="black" stroke="black" points="241.35,-120.26 239.48,-109.83 234.44,-119.14 241.35,-120.26"/>
</g>
<!-- 6 -->
<g id="node7" class="node">
<title>6</title>
<polygon fill="none" stroke="black" points="186.62,-324 131.62,-324 131.62,-288 186.62,-288 186.62,-324"/>
<text text-anchor="middle" x="159.12" y="-300.95" font-family="Times,serif" font-size="14.00">weaver</text>
</g>
<!-- 6&#45;&gt;0 -->
<g id="edge10" class="edge">
<title>6&#45;&gt;0</title>
<path fill="none" stroke="black" d="M143.28,-287.77C123.07,-264.87 88.43,-222.34 69.12,-180 60.36,-160.78 55.03,-137.49 51.94,-119.56"/>
<polygon fill="black" stroke="black" points="55.43,-119.21 50.41,-109.88 48.51,-120.3 55.43,-119.21"/>
</g>
<!-- 6&#45;&gt;1 -->
<g id="edge11" class="edge">
<title>6&#45;&gt;1</title>
<path fill="none" stroke="black" d="M149.99,-287.88C145.12,-277.76 139.62,-264.51 137.12,-252 134,-236.31 133.63,-231.61 137.12,-216 139.05,-207.4 142.54,-198.55 146.31,-190.61"/>
<polygon fill="black" stroke="black" points="149.38,-192.29 150.81,-181.79 143.14,-189.1 149.38,-192.29"/>
</g>
<!-- 6&#45;&gt;3 -->
<g id="edge12" class="edge">
<title>6&#45;&gt;3</title>
<path fill="none" stroke="black" d="M186.68,-298.17C210.84,-290.77 245.14,-276.59 265.12,-252 316.7,-188.56 335.11,-147.25 303.12,-72 298.57,-61.29 290.68,-51.7 282.27,-43.71"/>
<polygon fill="black" stroke="black" points="284.76,-41.24 274.93,-37.28 280.14,-46.5 284.76,-41.24"/>
</g>
<!-- 6&#45;&gt;5 -->
<g id="edge13" class="edge">
<title>6&#45;&gt;5</title>
<path fill="none" stroke="black" d="M169.51,-287.7C174.19,-279.9 179.82,-270.51 185.03,-261.83"/>
<polygon fill="black" stroke="black" points="187.94,-263.78 190.08,-253.4 181.94,-260.18 187.94,-263.78"/>
</g>
</g>
</svg>
